# xmcd CD database file
#
# Track frame offsets:
#	150
#	12247
#	25173
#	39062
#	54185
#	69555
#	82151
#	95286
#	116167
#	132661
#	141676
#	154426
#	169196
#	183883
#	193774
#	208473
#	221101
#
# Disc length: 3278 seconds
#
# Revision: 14
# Processed by: cddbd v1.5.2PL0 Copyright (c) Steve Scherf et al.
# Submitted via: CDex 1.51
#
DISCID=030ccc11
DTITLE=Ray Charles - Ray OST
DYEAR=2004
DGENRE=Jazz
TTITLE0=Mess Around
TTITLE1=I've Got A Woman
TTITLE2=Hallelujah I Love Her So (Live)
TTITLE3=Drown In My Own Tears
TTITLE4=(Night Time Is) The Right Time
TTITLE5=Mary Ann
TTITLE6=Hard Times (No One Knows Better Than I)
TTITLE7=What'd I Say (Live)
TTITLE8=Georgia On My Mind
TTITLE9=Hit The Road Jack
TTITLE10=Unchain My Heart
TTITLE11=I Can't Stop Loving You (Live)
TTITLE12=Born To Lose
TTITLE13=Bye Bye, Love
TTITLE14=You Don't Know Me (Live)
TTITLE15=Let The Good Times Roll (Live)
TTITLE16=Georgia On My Mind (Live)
EXTD=YEAR: 2004
EXTT0=
EXTT1=
EXTT2=
EXTT3=
EXTT4=
EXTT5=
EXTT6=
EXTT7=
EXTT8=
EXTT9=
EXTT10=
EXTT11=
EXTT12=
EXTT13=
EXTT14=
EXTT15=
EXTT16=
PLAYORDER=
